<svg id="code_review" data-name="code review" xmlns="http://www.w3.org/2000/svg" viewBox="0 0 1430 800"><defs><style>.cls-1,.cls-10,.cls-2,.cls-3,.cls-4,.cls-5,.cls-6,.cls-7,.cls-8,.cls-9{fill:none;stroke-linecap:round;stroke-width:3px;}.cls-1,.cls-9{stroke:#e5e7ea;}.cls-1,.cls-3{stroke-miterlimit:10;}.cls-2{stroke:#ea4a5a;}.cls-10,.cls-2,.cls-4,.cls-5,.cls-6,.cls-7,.cls-8,.cls-9{stroke-linejoin:round;}.cls-3,.cls-4{stroke:#34d058;}.cls-5{stroke:#8a64d2;}.cls-6{stroke:#f66a09;}.cls-7{stroke:#cb2431;}.cls-8{stroke:#ffd33d;}.cls-10{stroke:#2088ff;}</style></defs><title>satellite-launch-site-heroes</title><line class="cls-1" x1="1384.79" y1="331.69" x2="1366.8" y2="331.69"/><line class="cls-1" x1="1099.85" y1="111.02" x2="993.12" y2="111.02"/><line class="cls-1" x1="1145.57" y1="111.02" x2="1123.62" y2="111.02"/><line class="cls-1" x1="1361.9" y1="111.02" x2="1339.96" y2="111.02"/><line class="cls-1" x1="1069.01" y1="71.15" x2="1034.68" y2="71.15"/><line class="cls-1" x1="1342.34" y1="71.15" x2="1308.01" y2="71.15"/><line class="cls-1" x1="1375.33" y1="71.15" x2="1360.15" y2="71.15"/><line class="cls-2" x1="1027.68" y1="131.77" x2="1018.65" y2="131.77"/><line class="cls-1" x1="1078.7" y1="92.25" x2="1069.01" y2="92.25"/><line class="cls-1" x1="1073.86" y1="87.41" x2="1073.86" y2="97.1"/><line class="cls-1" x1="1078.7" y1="131.77" x2="1069.01" y2="131.77"/><line class="cls-1" x1="1073.86" y1="126.92" x2="1073.86" y2="136.61"/><line class="cls-3" x1="292.86" y1="283.77" x2="283.17" y2="283.77"/><line class="cls-3" x1="288.02" y1="278.92" x2="288.02" y2="288.61"/><line class="cls-4" x1="292.86" y1="323.28" x2="283.17" y2="323.28"/><line class="cls-4" x1="288.02" y1="318.44" x2="288.02" y2="328.13"/><path class="cls-5" d="M1206,165.25h17.53a3,3,0,0,0,3-3V140.53a3,3,0,0,0-3-3H1201.8a3,3,0,0,0-3,3v31.59Z"/><path class="cls-6" d="M1288.61,423.38h17.53a3,3,0,0,0,3-3V398.66a3,3,0,0,0-3-3h-21.72a3,3,0,0,0-3,3v31.59Z"/><path class="cls-7" d="M202.19,519.33h17.53a3,3,0,0,0,3-3V494.61a3,3,0,0,0-3-3H198a3,3,0,0,0-3,3V526.2Z"/><path class="cls-8" d="M1301.92,236.63H1284.4a3,3,0,0,1-3-3V211.91a3,3,0,0,1,3-3h21.72a3,3,0,0,1,3,3V243.5Z"/><path class="cls-9" d="M1379.15,678.88h-17.53a3,3,0,0,1-3-3V654.16a3,3,0,0,1,3-3h21.72a3,3,0,0,1,3,3v31.59Z"/><path class="cls-10" d="M149.26,225.55H131.73a3,3,0,0,1-3-3V200.83a3,3,0,0,1,3-3h21.72a3,3,0,0,1,3,3v31.59Z"/><line class="cls-1" x1="1353.3" y1="331.69" x2="1310.18" y2="331.69"/><line class="cls-1" x1="1090.85" y1="151.59" x2="1037.21" y2="151.59"/><line class="cls-1" x1="1393.26" y1="351.43" x2="1343.1" y2="351.43"/><line class="cls-1" x1="1373.66" y1="311.95" x2="1338.11" y2="311.95"/><line class="cls-1" x1="1282.41" y1="351.43" x2="1265.22" y2="351.43"/><line class="cls-1" x1="1282.1" y1="371.28" x2="1240.08" y2="371.28"/><line class="cls-1" x1="1338.31" y1="390.91" x2="1324.31" y2="390.91"/><line class="cls-1" x1="1269.31" y1="390.91" x2="1245.36" y2="390.91"/><line class="cls-1" x1="1432" y1="666.1" x2="1396.08" y2="666.1"/><line class="cls-1" x1="1050.73" y1="151.59" x2="1050.73" y2="71.15"/><line class="cls-1" x1="1187.04" y1="601.56" x2="1139.45" y2="601.56"/><line class="cls-1" x1="1243.74" y1="601.56" x2="1206.57" y2="601.56"/><line class="cls-1" x1="1280.75" y1="601.56" x2="1253.35" y2="601.56"/><line class="cls-1" x1="1213.7" y1="561.69" x2="1183.54" y2="561.69"/><line class="cls-1" x1="1257.34" y1="561.69" x2="1227.17" y2="561.69"/><line class="cls-1" x1="1174.01" y1="622.31" x2="1164.98" y2="622.31"/><line class="cls-3" x1="1225.03" y1="582.8" x2="1215.34" y2="582.8"/><line class="cls-3" x1="1220.19" y1="577.95" x2="1220.19" y2="587.64"/><line class="cls-3" x1="1225.03" y1="622.31" x2="1215.34" y2="622.31"/><line class="cls-3" x1="1220.19" y1="617.46" x2="1220.19" y2="627.15"/><line class="cls-1" x1="1222.07" y1="642.13" x2="1170.21" y2="642.13"/><line class="cls-1" x1="1197.06" y1="642.13" x2="1197.06" y2="561.69"/><path class="cls-1" d="M199.85,0V84.08a18.78,18.78,0,0,0,18.78,18.78h20.61A18.78,18.78,0,0,1,258,121.63v131.6"/><path class="cls-1" d="M1135,410.66h135.61"/><path class="cls-1" d="M1190.53,151.59H1128a18.78,18.78,0,0,1-18.78-18.78l0.22-61.22V0"/><path class="cls-1" d="M1295.24,201.66l0-31.3a18.78,18.78,0,0,0-18.78-18.78h-41.29"/><path class="cls-1" d="M1371.74,642.66l0-213.23A18.78,18.78,0,0,0,1353,410.66h-33.29"/><path class="cls-1" d="M208.85,481.77A18.78,18.78,0,0,0,190.08,463l-78-1a18.78,18.78,0,0,1-18.78-18.78l0.19-210.85a18.78,18.78,0,0,1,18.82-18.73l10,0.08"/><path class="cls-1" d="M1295.27,435v59a18.78,18.78,0,0,1-18.78,18.78l-34.69-.08H1239a18.78,18.78,0,0,0-18.82,18.73v17"/><path class="cls-1" d="M240.16,323.76l-33.28-.19a18.78,18.78,0,0,1-18.73-18.82l-0.4-72.46A18.78,18.78,0,0,0,169,213.48h-4.27"/><path class="cls-1" d="M208.85,528.7V643.36a18.78,18.78,0,0,1-18.78,18.78H146.52"/><path class="cls-1" d="M-3.6,53.77H20.77A18.78,18.78,0,0,1,39.54,72.54V194.69a18.78,18.78,0,0,0,18.78,18.78h61.28"/><line class="cls-1" x1="241.79" y1="283.94" x2="209.96" y2="283.94"/><line class="cls-1" x1="76.16" y1="263.37" x2="64.3" y2="263.37"/><line class="cls-1" x1="258.02" y1="335.18" x2="258.02" y2="273.24"/><line class="cls-1" x1="357.45" y1="303.7" x2="237.92" y2="303.7"/><line class="cls-1" x1="319.65" y1="323.8" x2="308.13" y2="323.8"/><line class="cls-1" x1="279.35" y1="263.84" x2="239.76" y2="263.84"/><line class="cls-1" x1="310.55" y1="343.69" x2="219.76" y2="343.69"/><line class="cls-1" x1="204.17" y1="193.45" x2="168.74" y2="193.45"/><line class="cls-1" x1="119.59" y1="193.45" x2="97.11" y2="193.45"/><line class="cls-1" x1="222.32" y1="303.7" x2="210.8" y2="303.7"/><line class="cls-1" x1="130.66" y1="283.13" x2="106.13" y2="283.13"/><line class="cls-1" x1="80.98" y1="283.13" x2="42.27" y2="283.13"/><line class="cls-1" x1="98.57" y1="83.64" x2="56.22" y2="83.64"/><line class="cls-1" x1="309.64" y1="263.84" x2="293.76" y2="263.84"/><line class="cls-1" x1="184.23" y1="482.87" x2="155.66" y2="482.87"/><line class="cls-1" x1="282.91" y1="502.64" x2="238.67" y2="502.64"/><line class="cls-1" x1="181.51" y1="502.64" x2="113.23" y2="502.64"/><line class="cls-1" x1="260.12" y1="522.74" x2="235.13" y2="522.74"/><line class="cls-1" x1="150.55" y1="642.38" x2="138.53" y2="642.38"/><line class="cls-1" x1="43.56" y1="682.24" x2="22.59" y2="682.24"/><line class="cls-1" x1="96.74" y1="662.14" x2="-3.6" y2="662.14"/><line class="cls-1" x1="119.59" y1="682.24" x2="60.33" y2="682.24"/><line class="cls-1" x1="185.85" y1="642.38" x2="163.03" y2="642.38"/><line class="cls-1" x1="241.79" y1="64.01" x2="231.89" y2="64.01"/><line class="cls-1" x1="273.35" y1="83.78" x2="222.32" y2="83.78"/><line class="cls-1" x1="1290.74" y1="92.25" x2="1273.09" y2="92.25"/><line class="cls-1" x1="181.18" y1="83.78" x2="162.07" y2="83.78"/><line class="cls-1" x1="79.36" y1="63.81" x2="62.11" y2="63.81"/><path class="cls-1" d="M1430.37,92.34L1314,92.25A18.78,18.78,0,0,0,1295.26,111v78.78"/><circle class="cls-1" cx="36.41" cy="283.13" r="5.01"/><circle class="cls-1" cx="1398.26" cy="351.43" r="5.01"/><circle class="cls-1" cx="248.68" cy="64.01" r="5.01"/><circle class="cls-1" cx="1150.57" cy="111.02" r="5.01"/><line class="cls-1" x1="134.73" y1="662.14" x2="129.29" y2="662.14"/><line class="cls-1" x1="118.67" y1="662.14" x2="113.23" y2="662.14"/><circle class="cls-1" cx="123.98" cy="662.14" r="5.01"/><line class="cls-1" x1="1126.1" y1="410.66" x2="1120.66" y2="410.66"/><line class="cls-1" x1="1110.03" y1="410.66" x2="1104.59" y2="410.66"/><circle class="cls-1" cx="1115.34" cy="410.66" r="5.01"/><path class="cls-1" d="M1271.19,371.38a19.11,19.11,0,0,0-19.11,19.11"/><path class="cls-1" d="M1295.27,386.9V317.69a18.78,18.78,0,0,0-18.78-18.78h-45.64a18.78,18.78,0,0,1-18.78-18.78V174.5"/><line class="cls-1" x1="1295.27" y1="358.66" x2="1295.27" y2="247.58"/><path class="cls-1" d="M176.14,482.82a18.78,18.78,0,0,0-18.78,18.78"/><line class="cls-1" x1="1334.39" y1="331.6" x2="1353.94" y2="312.04"/></svg>