<svg id="generic-bg" xmlns="http://www.w3.org/2000/svg" viewBox="0 0 1451.15 653.44"><title>simple-codelines</title><path d="M92.89,4417.38a1.5,1.5,0,1,1,0-3,18.74,18.74,0,0,0,18.72-18.72,1.5,1.5,0,0,1,3,0A21.75,21.75,0,0,1,92.89,4417.38Z" transform="translate(9.07 -3917.91)" style="fill:#24292e"/><path d="M35.18,4193.36H14.64a1.5,1.5,0,1,1,0-3H35.18a17.3,17.3,0,0,0,17.28-17.28v-64.24a20.3,20.3,0,0,1,20.28-20.28H98.37a17.3,17.3,0,0,0,17.28-17.28V3921.07a1.5,1.5,0,0,1,3,0V4071.3a20.3,20.3,0,0,1-20.28,20.28H72.73a17.3,17.3,0,0,0-17.28,17.28v64.24A20.3,20.3,0,0,1,35.18,4193.36Z" transform="translate(9.07 -3917.91)" style="fill:#24292e"/><path d="M214.58,4010.17H158.3a1.5,1.5,0,1,1,0-3h56.28A1.5,1.5,0,0,1,214.58,4010.17Z" transform="translate(9.07 -3917.91)" style="fill:#24292e"/><path d="M89.67,4030.47H45.54a1.5,1.5,0,0,1,0-3H89.67A1.5,1.5,0,1,1,89.67,4030.47Z" transform="translate(9.07 -3917.91)" style="fill:#24292e"/><path d="M145.48,4030.47H132.73a1.5,1.5,0,1,1,0-3h12.75A1.5,1.5,0,1,1,145.48,4030.47Z" transform="translate(9.07 -3917.91)" style="fill:#24292e"/><path d="M42.19,3969.34H-1a1.5,1.5,0,0,1-1.5-1.5,1.5,1.5,0,0,1,1.5-1.5H42.19A1.5,1.5,0,1,1,42.19,3969.34Z" transform="translate(9.07 -3917.91)" style="fill:#24292e"/><path d="M80.48,3969.34H58.3a1.5,1.5,0,1,1,0-3H80.48A1.5,1.5,0,0,1,80.48,3969.34Z" transform="translate(9.07 -3917.91)" style="fill:#24292e"/><path d="M171.62,3969.34H143.74a1.5,1.5,0,1,1,0-3h27.88A1.5,1.5,0,0,1,171.62,3969.34Z" transform="translate(9.07 -3917.91)" style="fill:#24292e"/><path d="M209.41,3969.34H189.9a1.5,1.5,0,1,1,0-3h19.51A1.5,1.5,0,0,1,209.41,3969.34Z" transform="translate(9.07 -3917.91)" style="fill:#24292e"/><path d="M301.27,3969.34H287a1.5,1.5,0,1,1,0-3h14.29A1.5,1.5,0,1,1,301.27,3969.34Z" transform="translate(9.07 -3917.91)" style="fill:#24292e"/><path d="M352,3969.34H318.32a1.5,1.5,0,1,1,0-3H352A1.5,1.5,0,1,1,352,3969.34Z" transform="translate(9.07 -3917.91)" style="fill:#24292e"/><path d="M68.05,3989.64H52.54a1.5,1.5,0,0,1,0-3H68.05A1.5,1.5,0,1,1,68.05,3989.64Z" transform="translate(9.07 -3917.91)" style="fill:#24292e"/><path d="M101.38,4071.3H82.88a1.5,1.5,0,1,1,0-3h18.5A1.5,1.5,0,0,1,101.38,4071.3Z" transform="translate(9.07 -3917.91)" style="fill:#24292e"/><path d="M79.31,4091.6H26.62a1.5,1.5,0,1,1,0-3H79.31A1.5,1.5,0,0,1,79.31,4091.6Z" transform="translate(9.07 -3917.91)" style="fill:#24292e"/><path d="M97.19,4050.77H82a1.5,1.5,0,0,1,0-3H97.19A1.5,1.5,0,0,1,97.19,4050.77Z" transform="translate(9.07 -3917.91)" style="fill:#24292e"/><path d="M36.57,4152.76H-2a1.5,1.5,0,0,1-1.5-1.5,1.5,1.5,0,0,1,1.5-1.5h38.6A1.5,1.5,0,0,1,36.57,4152.76Z" transform="translate(9.07 -3917.91)" style="fill:#24292e"/><path d="M92.6,4152.76h-22a1.5,1.5,0,1,1,0-3h22A1.5,1.5,0,0,1,92.6,4152.76Z" transform="translate(9.07 -3917.91)" style="fill:#24292e"/><path d="M186.08,4152.76H169.25a1.5,1.5,0,0,1,0-3h16.83A1.5,1.5,0,0,1,186.08,4152.76Z" transform="translate(9.07 -3917.91)" style="fill:#24292e"/><path d="M241.64,4152.76H202.81a1.5,1.5,0,1,1,0-3h38.82A1.5,1.5,0,1,1,241.64,4152.76Z" transform="translate(9.07 -3917.91)" style="fill:#24292e"/><path d="M156.6,4173.06H133.28a1.5,1.5,0,0,1,0-3H156.6A1.5,1.5,0,0,1,156.6,4173.06Z" transform="translate(9.07 -3917.91)" style="fill:#24292e"/><path d="M118.84,4111.93H103.11a1.5,1.5,0,1,1,0-3h15.73A1.5,1.5,0,1,1,118.84,4111.93Z" transform="translate(9.07 -3917.91)" style="fill:#24292e"/><path d="M182.56,4111.93H137.23a1.5,1.5,0,0,1,0-3h45.33A1.5,1.5,0,1,1,182.56,4111.93Z" transform="translate(9.07 -3917.91)" style="fill:#24292e"/><path d="M220.69,4111.93H197.23a1.5,1.5,0,0,1,0-3h23.46A1.5,1.5,0,1,1,220.69,4111.93Z" transform="translate(9.07 -3917.91)" style="fill:#24292e"/><path d="M129.09,4132.23H70.55a1.5,1.5,0,1,1,0-3h58.54A1.5,1.5,0,1,1,129.09,4132.23Z" transform="translate(9.07 -3917.91)" style="fill:#24292e"/><path d="M201.22,4132.23H158.37a1.5,1.5,0,1,1,0-3h42.85A1.5,1.5,0,0,1,201.22,4132.23Z" transform="translate(9.07 -3917.91)" style="fill:#24292e"/><path d="M272.71,4132.23H216.33a1.5,1.5,0,0,1,0-3h56.37A1.5,1.5,0,1,1,272.71,4132.23Z" transform="translate(9.07 -3917.91)" style="fill:#24292e"/><path d="M26.79,4132.23H5.51a1.5,1.5,0,0,1,0-3H26.79A1.5,1.5,0,1,1,26.79,4132.23Z" transform="translate(9.07 -3917.91)" style="fill:#24292e"/><path d="M65.47,4213.89H29.3a1.5,1.5,0,0,1,0-3H65.47A1.5,1.5,0,0,1,65.47,4213.89Z" transform="translate(9.07 -3917.91)" style="fill:#24292e"/><path d="M112,4213.89H81.23a1.5,1.5,0,0,1,0-3H112A1.5,1.5,0,1,1,112,4213.89Z" transform="translate(9.07 -3917.91)" style="fill:#24292e"/><path d="M209.67,4213.89H174.59a1.5,1.5,0,0,1,0-3h35.08A1.5,1.5,0,1,1,209.67,4213.89Z" transform="translate(9.07 -3917.91)" style="fill:#24292e"/><path d="M85.61,4193.36H61.78a1.5,1.5,0,1,1,0-3H85.61A1.5,1.5,0,0,1,85.61,4193.36Z" transform="translate(9.07 -3917.91)" style="fill:#24292e"/><path d="M108.25,4193.36h-11a1.5,1.5,0,0,1,0-3h11A1.5,1.5,0,0,1,108.25,4193.36Z" transform="translate(9.07 -3917.91)" style="fill:#24292e"/><path d="M121.44,4295.32H94.64a1.5,1.5,0,0,1,0-3h26.81A1.5,1.5,0,0,1,121.44,4295.32Z" transform="translate(9.07 -3917.91)" style="fill:#24292e"/><path d="M152.75,4315.62h-8.86a1.5,1.5,0,1,1,0-3h8.86A1.5,1.5,0,0,1,152.75,4315.62Z" transform="translate(9.07 -3917.91)" style="fill:#24292e"/><path d="M44.57,4254.49H-1a1.5,1.5,0,0,1-1.5-1.5,1.5,1.5,0,0,1,1.5-1.5h45.6A1.5,1.5,0,1,1,44.57,4254.49Z" transform="translate(9.07 -3917.91)" style="fill:#24292e"/><path d="M175,4254.49h-17.2a1.5,1.5,0,0,1,0-3H175A1.5,1.5,0,1,1,175,4254.49Z" transform="translate(9.07 -3917.91)" style="fill:#24292e"/><path d="M69.39,4274.79H49a1.5,1.5,0,1,1,0-3H69.39A1.5,1.5,0,1,1,69.39,4274.79Z" transform="translate(9.07 -3917.91)" style="fill:#24292e"/><path d="M121.44,4274.79H83.58a1.5,1.5,0,1,1,0-3h37.86A1.5,1.5,0,0,1,121.44,4274.79Z" transform="translate(9.07 -3917.91)" style="fill:#24292e"/><path d="M172.66,4274.79H148.39a1.5,1.5,0,1,1,0-3h24.27A1.5,1.5,0,0,1,172.66,4274.79Z" transform="translate(9.07 -3917.91)" style="fill:#24292e"/><path d="M191.19,4274.79h-9a1.5,1.5,0,0,1,0-3h9A1.5,1.5,0,1,1,191.19,4274.79Z" transform="translate(9.07 -3917.91)" style="fill:#24292e"/><path d="M110.74,4356.45H70.51a1.5,1.5,0,0,1,0-3h40.23A1.5,1.5,0,0,1,110.74,4356.45Z" transform="translate(9.07 -3917.91)" style="fill:#24292e"/><path d="M53.34,4356.34h-38a1.5,1.5,0,0,1,0-3h38A1.5,1.5,0,0,1,53.34,4356.34Z" transform="translate(9.07 -3917.91)" style="fill:#24292e"/><path d="M61.27,4376.75H49.63a1.5,1.5,0,0,1,0-3H61.27A1.5,1.5,0,1,1,61.27,4376.75Z" transform="translate(9.07 -3917.91)" style="fill:#24292e"/><path d="M197.23,4376.75H174.17a1.5,1.5,0,0,1,0-3h23.07A1.5,1.5,0,0,1,197.23,4376.75Z" transform="translate(9.07 -3917.91)" style="fill:#24292e"/><path d="M71.91,4335.92H55.66a1.5,1.5,0,0,1,0-3H71.91A1.5,1.5,0,1,1,71.91,4335.92Z" transform="translate(9.07 -3917.91)" style="fill:#24292e"/><path d="M95.57,4335.92H86.81a1.5,1.5,0,1,1,0-3h8.76A1.5,1.5,0,0,1,95.57,4335.92Z" transform="translate(9.07 -3917.91)" style="fill:#24292e"/><path d="M188.55,4571.34a1.5,1.5,0,0,1-1.5-1.5v-13a17.29,17.29,0,0,0-17.27-17.23h0l-81.4.08h0A20.28,20.28,0,0,1,68,4519.51l-0.19-57v-5.72A18.87,18.87,0,0,0,49,4437.91H18.23a1.5,1.5,0,0,1,0-3H49a21.88,21.88,0,0,1,21.85,21.85v5.71l0.19,57a17.28,17.28,0,0,0,17.27,17.24h0l81.4-.08h0A20.3,20.3,0,0,1,190,4556.88v13a1.5,1.5,0,0,1-1.5,1.5h0Z" transform="translate(9.07 -3917.91)" style="fill:#24292e"/><path d="M103.8,4437.91H75.07a1.5,1.5,0,1,1,0-3H103.8A1.5,1.5,0,0,1,103.8,4437.91Z" transform="translate(9.07 -3917.91)" style="fill:#24292e"/><path d="M182.15,4437.91h-63a1.5,1.5,0,0,1,0-3h63A1.5,1.5,0,1,1,182.15,4437.91Z" transform="translate(9.07 -3917.91)" style="fill:#24292e"/><path d="M55.66,4458.21H42.19a1.5,1.5,0,1,1,0-3H55.66A1.5,1.5,0,1,1,55.66,4458.21Z" transform="translate(9.07 -3917.91)" style="fill:#24292e"/><path d="M141.55,4397.08H101.37a1.5,1.5,0,1,1,0-3h40.18A1.5,1.5,0,0,1,141.55,4397.08Z" transform="translate(9.07 -3917.91)" style="fill:#24292e"/><path d="M31.9,4417.38H-1a1.5,1.5,0,0,1-1.5-1.5,1.5,1.5,0,0,1,1.5-1.5H31.9A1.5,1.5,0,1,1,31.9,4417.38Z" transform="translate(9.07 -3917.91)" style="fill:#24292e"/><path d="M124,4417.38H89.27a1.5,1.5,0,0,1,0-3H124A1.5,1.5,0,0,1,124,4417.38Z" transform="translate(9.07 -3917.91)" style="fill:#24292e"/><path d="M144.8,4417.38h-6.68a1.5,1.5,0,0,1,0-3h6.68A1.5,1.5,0,0,1,144.8,4417.38Z" transform="translate(9.07 -3917.91)" style="fill:#24292e"/><path d="M149.78,4499H117.15a1.5,1.5,0,0,1,0-3h32.63A1.5,1.5,0,0,1,149.78,4499Z" transform="translate(9.07 -3917.91)" style="fill:#24292e"/><path d="M175.87,4499H162.33a1.5,1.5,0,1,1,0-3h13.54A1.5,1.5,0,1,1,175.87,4499Z" transform="translate(9.07 -3917.91)" style="fill:#24292e"/><path d="M132.83,4519.34H88.77a1.5,1.5,0,1,1,0-3h44.06A1.5,1.5,0,1,1,132.83,4519.34Z" transform="translate(9.07 -3917.91)" style="fill:#24292e"/><path d="M25.55,4478.51H-7.57a1.5,1.5,0,0,1-1.5-1.5,1.5,1.5,0,0,1,1.5-1.5H25.55A1.5,1.5,0,0,1,25.55,4478.51Z" transform="translate(9.07 -3917.91)" style="fill:#24292e"/><path d="M122,4478.51H102.39a1.5,1.5,0,0,1,0-3H122A1.5,1.5,0,1,1,122,4478.51Z" transform="translate(9.07 -3917.91)" style="fill:#24292e"/><path d="M157.82,4478.51H135.71a1.5,1.5,0,1,1,0-3h22.11A1.5,1.5,0,1,1,157.82,4478.51Z" transform="translate(9.07 -3917.91)" style="fill:#24292e"/><path d="M359.78,4519.34H319.92a1.5,1.5,0,1,1,0-3h39.86A1.5,1.5,0,0,1,359.78,4519.34Z" transform="translate(9.07 -3917.91)" style="fill:#24292e"/><path d="M1329,4010.17h-51.7a1.5,1.5,0,0,1,0-3H1329A1.5,1.5,0,1,1,1329,4010.17Z" transform="translate(9.07 -3917.91)" style="fill:#24292e"/><path d="M1265.67,4010.17h-31.33a1.5,1.5,0,0,1,0-3h31.33A1.5,1.5,0,0,1,1265.67,4010.17Z" transform="translate(9.07 -3917.91)" style="fill:#24292e"/><path d="M1185.92,4010.17h-28.34a1.5,1.5,0,0,1,0-3h28.34A1.5,1.5,0,0,1,1185.92,4010.17Z" transform="translate(9.07 -3917.91)" style="fill:#24292e"/><path d="M1436.91,4010.17H1412a1.5,1.5,0,0,1,0-3h24.94A1.5,1.5,0,1,1,1436.91,4010.17Z" transform="translate(9.07 -3917.91)" style="fill:#24292e"/><path d="M1279,4030.47h-15.6a1.5,1.5,0,0,1,0-3H1279A1.5,1.5,0,0,1,1279,4030.47Z" transform="translate(9.07 -3917.91)" style="fill:#24292e"/><path d="M1365.57,3969.34H1302a1.5,1.5,0,0,1,0-3h63.58A1.5,1.5,0,0,1,1365.57,3969.34Z" transform="translate(9.07 -3917.91)" style="fill:#24292e"/><path d="M1186.26,3969.34h-15.44a1.5,1.5,0,1,1,0-3h15.44A1.5,1.5,0,1,1,1186.26,3969.34Z" transform="translate(9.07 -3917.91)" style="fill:#24292e"/><path d="M1157.57,3969.34h-96.75a1.5,1.5,0,1,1,0-3h96.75A1.5,1.5,0,0,1,1157.57,3969.34Z" transform="translate(9.07 -3917.91)" style="fill:#24292e"/><path d="M1391.58,3969.34h-12.89a1.5,1.5,0,0,1,0-3h12.89A1.5,1.5,0,0,1,1391.58,3969.34Z" transform="translate(9.07 -3917.91)" style="fill:#24292e"/><path d="M1130.25,3989.64H1108a1.5,1.5,0,1,1,0-3h22.27A1.5,1.5,0,0,1,1130.25,3989.64Z" transform="translate(9.07 -3917.91)" style="fill:#24292e"/><path d="M1343.09,3989.64H1314a1.5,1.5,0,0,1,0-3h29.09A1.5,1.5,0,0,1,1343.09,3989.64Z" transform="translate(9.07 -3917.91)" style="fill:#24292e"/><path d="M1313.41,3949h-30.62a1.5,1.5,0,1,1,0-3h30.62A1.5,1.5,0,1,1,1313.41,3949Z" transform="translate(9.07 -3917.91)" style="fill:#24292e"/><path d="M1140.83,3949H1103.5a1.5,1.5,0,1,1,0-3h37.32A1.5,1.5,0,0,1,1140.83,3949Z" transform="translate(9.07 -3917.91)" style="fill:#24292e"/><path d="M1086,3949h-114a1.5,1.5,0,0,1,0-3h114A1.5,1.5,0,1,1,1086,3949Z" transform="translate(9.07 -3917.91)" style="fill:#24292e"/><path d="M389.71,3949H311a1.5,1.5,0,1,1,0-3h78.74A1.5,1.5,0,1,1,389.71,3949Z" transform="translate(9.07 -3917.91)" style="fill:#24292e"/><path d="M445.43,3949H403.62a1.5,1.5,0,0,1,0-3h41.81A1.5,1.5,0,1,1,445.43,3949Z" transform="translate(9.07 -3917.91)" style="fill:#24292e"/><path d="M1323.07,4071.3H1314a1.5,1.5,0,1,1,0-3h9.07A1.5,1.5,0,0,1,1323.07,4071.3Z" transform="translate(9.07 -3917.91)" style="fill:#24292e"/><path d="M1374.92,4071.3h-35.28a1.5,1.5,0,0,1,0-3h35.28A1.5,1.5,0,0,1,1374.92,4071.3Z" transform="translate(9.07 -3917.91)" style="fill:#24292e"/><path d="M1281.38,4091.6h-23.81a1.5,1.5,0,0,1,0-3h23.81A1.5,1.5,0,0,1,1281.38,4091.6Z" transform="translate(9.07 -3917.91)" style="fill:#24292e"/><path d="M1409.35,4091.6h-34.26a1.5,1.5,0,0,1,0-3h34.26A1.5,1.5,0,1,1,1409.35,4091.6Z" transform="translate(9.07 -3917.91)" style="fill:#24292e"/><path d="M1368.67,4050.77h-18.43a1.5,1.5,0,0,1,0-3h18.43A1.5,1.5,0,0,1,1368.67,4050.77Z" transform="translate(9.07 -3917.91)" style="fill:#24292e"/><path d="M1250.42,4152.76H1238a1.5,1.5,0,0,1,0-3h12.42A1.5,1.5,0,0,1,1250.42,4152.76Z" transform="translate(9.07 -3917.91)" style="fill:#24292e"/><path d="M1287.76,4152.76h-24.17a1.5,1.5,0,0,1,0-3h24.17A1.5,1.5,0,0,1,1287.76,4152.76Z" transform="translate(9.07 -3917.91)" style="fill:#24292e"/><path d="M1328.25,4152.76H1314a1.5,1.5,0,1,1,0-3h14.25A1.5,1.5,0,0,1,1328.25,4152.76Z" transform="translate(9.07 -3917.91)" style="fill:#24292e"/><path d="M1380.58,4152.76h-37.49a1.5,1.5,0,0,1,0-3h37.49A1.5,1.5,0,1,1,1380.58,4152.76Z" transform="translate(9.07 -3917.91)" style="fill:#24292e"/><path d="M1435.94,4152.76h-20.13a1.5,1.5,0,0,1,0-3h20.13A1.5,1.5,0,1,1,1435.94,4152.76Z" transform="translate(9.07 -3917.91)" style="fill:#24292e"/><path d="M1392.5,4111.93h-42.27a1.5,1.5,0,0,1,0-3h42.27A1.5,1.5,0,1,1,1392.5,4111.93Z" transform="translate(9.07 -3917.91)" style="fill:#24292e"/><path d="M1342.09,4132.23h-28.68a1.5,1.5,0,1,1,0-3h28.68A1.5,1.5,0,0,1,1342.09,4132.23Z" transform="translate(9.07 -3917.91)" style="fill:#24292e"/><path d="M1368.67,4132.23h-10.55a1.5,1.5,0,0,1,0-3h10.55A1.5,1.5,0,0,1,1368.67,4132.23Z" transform="translate(9.07 -3917.91)" style="fill:#24292e"/><path d="M1271.11,4214.27H1244a1.5,1.5,0,1,1,0-3h27.08A1.5,1.5,0,0,1,1271.11,4214.27Z" transform="translate(9.07 -3917.91)" style="fill:#24292e"/><path d="M1313.41,4214.27h-26.22a1.5,1.5,0,1,1,0-3h26.22A1.5,1.5,0,1,1,1313.41,4214.27Z" transform="translate(9.07 -3917.91)" style="fill:#24292e"/><path d="M1380.58,4214.27h-49.43a1.5,1.5,0,1,1,0-3h49.43A1.5,1.5,0,0,1,1380.58,4214.27Z" transform="translate(9.07 -3917.91)" style="fill:#24292e"/><path d="M1253.64,4234.19h-29a1.5,1.5,0,0,1,0-3h29A1.5,1.5,0,0,1,1253.64,4234.19Z" transform="translate(9.07 -3917.91)" style="fill:#24292e"/><path d="M1433.47,4254.45h-24.22a1.5,1.5,0,0,1,0-3h24.22A1.5,1.5,0,0,1,1433.47,4254.45Z" transform="translate(9.07 -3917.91)" style="fill:#24292e"/><path d="M1296.25,4193.36H1281a1.5,1.5,0,0,1,0-3h15.2A1.5,1.5,0,0,1,1296.25,4193.36Z" transform="translate(9.07 -3917.91)" style="fill:#24292e"/><path d="M1341.43,4193.36h-28.87a1.5,1.5,0,0,1,0-3h28.87A1.5,1.5,0,0,1,1341.43,4193.36Z" transform="translate(9.07 -3917.91)" style="fill:#24292e"/><path d="M1438.74,4193.36h-29.5a1.5,1.5,0,0,1,0-3h29.5A1.5,1.5,0,0,1,1438.74,4193.36Z" transform="translate(9.07 -3917.91)" style="fill:#24292e"/><path d="M1330.5,4295.32h-42.4a1.5,1.5,0,0,1,0-3h42.4A1.5,1.5,0,0,1,1330.5,4295.32Z" transform="translate(9.07 -3917.91)" style="fill:#24292e"/><path d="M1365.71,4295.32H1345a1.5,1.5,0,0,1,0-3h20.68A1.5,1.5,0,1,1,1365.71,4295.32Z" transform="translate(9.07 -3917.91)" style="fill:#24292e"/><path d="M1432.06,4315.62h-22.82a1.5,1.5,0,0,1,0-3h22.82A1.5,1.5,0,0,1,1432.06,4315.62Z" transform="translate(9.07 -3917.91)" style="fill:#24292e"/><path d="M1379.58,4254.49h-30.35a1.5,1.5,0,0,1,0-3h30.35A1.5,1.5,0,0,1,1379.58,4254.49Z" transform="translate(9.07 -3917.91)" style="fill:#24292e"/><path d="M1311.58,4274.79h-9.19a1.5,1.5,0,0,1,0-3h9.19A1.5,1.5,0,0,1,1311.58,4274.79Z" transform="translate(9.07 -3917.91)" style="fill:#24292e"/><path d="M1345,4274.79h-21.12a1.5,1.5,0,1,1,0-3H1345A1.5,1.5,0,0,1,1345,4274.79Z" transform="translate(9.07 -3917.91)" style="fill:#24292e"/><path d="M1433.22,4274.79h-23.87a1.5,1.5,0,1,1,0-3h23.87A1.5,1.5,0,0,1,1433.22,4274.79Z" transform="translate(9.07 -3917.91)" style="fill:#24292e"/><path d="M1379.88,4356.45h-51.34a1.5,1.5,0,0,1,0-3h51.34A1.5,1.5,0,1,1,1379.88,4356.45Z" transform="translate(9.07 -3917.91)" style="fill:#24292e"/><path d="M1384.4,4376.75h-27.12a1.5,1.5,0,1,1,0-3h27.12A1.5,1.5,0,0,1,1384.4,4376.75Z" transform="translate(9.07 -3917.91)" style="fill:#24292e"/><path d="M1342.84,4335.92H1301a1.5,1.5,0,0,1,0-3h41.84A1.5,1.5,0,1,1,1342.84,4335.92Z" transform="translate(9.07 -3917.91)" style="fill:#24292e"/><path d="M1379.88,4335.92h-12.64a1.5,1.5,0,1,1,0-3h12.64A1.5,1.5,0,0,1,1379.88,4335.92Z" transform="translate(9.07 -3917.91)" style="fill:#24292e"/><path d="M1311.68,4437.91h-46a1.5,1.5,0,1,1,0-3h46A1.5,1.5,0,0,1,1311.68,4437.91Z" transform="translate(9.07 -3917.91)" style="fill:#24292e"/><path d="M1382.93,4437.91h-57.61a1.5,1.5,0,0,1,0-3h57.61A1.5,1.5,0,1,1,1382.93,4437.91Z" transform="translate(9.07 -3917.91)" style="fill:#24292e"/><path d="M1268.23,4458.21h-56.59a1.5,1.5,0,1,1,0-3h56.59A1.5,1.5,0,1,1,1268.23,4458.21Z" transform="translate(9.07 -3917.91)" style="fill:#24292e"/><path d="M1313.64,4458.21H1284a1.5,1.5,0,1,1,0-3h29.62A1.5,1.5,0,1,1,1313.64,4458.21Z" transform="translate(9.07 -3917.91)" style="fill:#24292e"/><path d="M1290.42,4397.08H1276.3a1.5,1.5,0,1,1,0-3h14.12A1.5,1.5,0,0,1,1290.42,4397.08Z" transform="translate(9.07 -3917.91)" style="fill:#24292e"/><path d="M1434.83,4397.08H1412a1.5,1.5,0,1,1,0-3h22.86A1.5,1.5,0,0,1,1434.83,4397.08Z" transform="translate(9.07 -3917.91)" style="fill:#24292e"/><path d="M1315.61,4417.38h-33.55a1.5,1.5,0,0,1,0-3h33.55A1.5,1.5,0,0,1,1315.61,4417.38Z" transform="translate(9.07 -3917.91)" style="fill:#24292e"/><path d="M1350.23,4417.38h-14.33a1.5,1.5,0,0,1,0-3h14.33A1.5,1.5,0,0,1,1350.23,4417.38Z" transform="translate(9.07 -3917.91)" style="fill:#24292e"/><path d="M1199.52,4519.34H1183a1.5,1.5,0,0,1,0-3h16.5A1.5,1.5,0,1,1,1199.52,4519.34Z" transform="translate(9.07 -3917.91)" style="fill:#24292e"/><path d="M1398.29,4519.34h-35.58a1.5,1.5,0,1,1,0-3h35.58A1.5,1.5,0,1,1,1398.29,4519.34Z" transform="translate(9.07 -3917.91)" style="fill:#24292e"/><path d="M1432.35,4519.34h-19.19a1.5,1.5,0,0,1,0-3h19.19A1.5,1.5,0,1,1,1432.35,4519.34Z" transform="translate(9.07 -3917.91)" style="fill:#24292e"/><path d="M1346.57,4539.64h-13.44a1.5,1.5,0,1,1,0-3h13.44A1.5,1.5,0,1,1,1346.57,4539.64Z" transform="translate(9.07 -3917.91)" style="fill:#24292e"/><path d="M1317.32,4539.64h-26a1.5,1.5,0,1,1,0-3h26A1.5,1.5,0,1,1,1317.32,4539.64Z" transform="translate(9.07 -3917.91)" style="fill:#24292e"/><path d="M1141.14,4539.64h-21.79a1.5,1.5,0,1,1,0-3h21.79A1.5,1.5,0,0,1,1141.14,4539.64Z" transform="translate(9.07 -3917.91)" style="fill:#24292e"/><path d="M1108,4539.64h-63a1.5,1.5,0,1,1,0-3h63A1.5,1.5,0,1,1,1108,4539.64Z" transform="translate(9.07 -3917.91)" style="fill:#24292e"/><path d="M1208.78,4539.64h-50.52a1.5,1.5,0,1,1,0-3h50.52A1.5,1.5,0,1,1,1208.78,4539.64Z" transform="translate(9.07 -3917.91)" style="fill:#24292e"/><path d="M1377.25,4559.95h-65.94a1.5,1.5,0,1,1,0-3h65.94A1.5,1.5,0,0,1,1377.25,4559.95Z" transform="translate(9.07 -3917.91)" style="fill:#24292e"/><path d="M1176.5,4559.95h-36.65a1.5,1.5,0,1,1,0-3h36.65A1.5,1.5,0,0,1,1176.5,4559.95Z" transform="translate(9.07 -3917.91)" style="fill:#24292e"/><path d="M1069.08,4559.95h-18.87a1.5,1.5,0,1,1,0-3h18.87A1.5,1.5,0,1,1,1069.08,4559.95Z" transform="translate(9.07 -3917.91)" style="fill:#24292e"/><path d="M1037.16,4559.95H969.29a1.5,1.5,0,1,1,0-3h67.88A1.5,1.5,0,1,1,1037.16,4559.95Z" transform="translate(9.07 -3917.91)" style="fill:#24292e"/><path d="M313.18,4539.64H296.51a1.5,1.5,0,1,1,0-3h16.66A1.5,1.5,0,0,1,313.18,4539.64Z" transform="translate(9.07 -3917.91)" style="fill:#24292e"/><path d="M55.45,4539.64H35.62a1.5,1.5,0,1,1,0-3H55.45A1.5,1.5,0,1,1,55.45,4539.64Z" transform="translate(9.07 -3917.91)" style="fill:#24292e"/><path d="M343.07,4539.64H325.26a1.5,1.5,0,1,1,0-3h17.81A1.5,1.5,0,0,1,343.07,4539.64Z" transform="translate(9.07 -3917.91)" style="fill:#24292e"/><path d="M343.85,4559.95H277.91a1.5,1.5,0,0,1,0-3h65.94A1.5,1.5,0,1,1,343.85,4559.95Z" transform="translate(9.07 -3917.91)" style="fill:#24292e"/><path d="M263.1,4559.95H202.57a1.5,1.5,0,0,1,0-3H263.1A1.5,1.5,0,0,1,263.1,4559.95Z" transform="translate(9.07 -3917.91)" style="fill:#24292e"/><path d="M174.64,4559.95H158.78a1.5,1.5,0,0,1,0-3h15.85A1.5,1.5,0,1,1,174.64,4559.95Z" transform="translate(9.07 -3917.91)" style="fill:#24292e"/><path d="M88.77,4559.95h-72a1.5,1.5,0,1,1,0-3h72A1.5,1.5,0,0,1,88.77,4559.95Z" transform="translate(9.07 -3917.91)" style="fill:#24292e"/><path d="M424.52,4559.95H358.66a1.5,1.5,0,1,1,0-3h65.86A1.5,1.5,0,1,1,424.52,4559.95Z" transform="translate(9.07 -3917.91)" style="fill:#24292e"/><path d="M1265.67,4478.51h-13.29a1.5,1.5,0,1,1,0-3h13.29A1.5,1.5,0,1,1,1265.67,4478.51Z" transform="translate(9.07 -3917.91)" style="fill:#24292e"/><path d="M1264.36,4539.64h-30.42a1.5,1.5,0,0,1,0-3h30.42a17.3,17.3,0,0,0,17.28-17.28v-23.58a20.3,20.3,0,0,1,20.28-20.28h131.3a1.5,1.5,0,1,1,0,3h-131.3a17.3,17.3,0,0,0-17.28,17.28v23.58A20.3,20.3,0,0,1,1264.36,4539.64Z" transform="translate(9.07 -3917.91)" style="fill:#24292e"/><path d="M137.58,3989.75a21.94,21.94,0,0,1-21.93-21.91,1.5,1.5,0,0,1,3,0,18.93,18.93,0,0,0,18.91,18.91l4.37,0H229.4a17.3,17.3,0,0,0,17.28-17.28v-50a1.5,1.5,0,0,1,3,0v50a20.3,20.3,0,0,1-20.28,20.28H141.95Z" transform="translate(9.07 -3917.91)" style="fill:#24292e"/><path d="M181.41,4504.05a6.51,6.51,0,1,1,6.51-6.51A6.52,6.52,0,0,1,181.41,4504.05Zm0-10a3.51,3.51,0,1,0,3.51,3.51A3.51,3.51,0,0,0,181.41,4494Z" transform="translate(9.07 -3917.91)" style="fill:#24292e"/><path d="M47.35,4320.63a6.51,6.51,0,1,1,6.51-6.51A6.52,6.52,0,0,1,47.35,4320.63Zm0-10a3.51,3.51,0,1,0,3.51,3.51A3.51,3.51,0,0,0,47.35,4310.62Z" transform="translate(9.07 -3917.91)" style="fill:#24292e"/><path d="M134.1,4137.24a6.51,6.51,0,1,1,6.51-6.51A6.52,6.52,0,0,1,134.1,4137.24Zm0-10a3.51,3.51,0,1,0,3.51,3.51A3.51,3.51,0,0,0,134.1,4127.22Z" transform="translate(9.07 -3917.91)" style="fill:#24292e"/><path d="M95.41,4213.8a1.5,1.5,0,0,1-1.06-.44L73.95,4193a1.5,1.5,0,0,1,2.12-2.12l20.4,20.4A1.5,1.5,0,0,1,95.41,4213.8Z" transform="translate(9.07 -3917.91)" style="fill:#24292e"/><path d="M332.46,3969.13a1.5,1.5,0,0,1-1.06-2.56l20.1-20.1a1.5,1.5,0,0,1,2.12,2.12l-20.1,20.1A1.5,1.5,0,0,1,332.46,3969.13Z" transform="translate(9.07 -3917.91)" style="fill:#24292e"/><path d="M1349.23,4213.58a1.5,1.5,0,0,1-1.06-.44L1328,4192.92a1.5,1.5,0,0,1,2.12-2.12l20.22,20.22A1.5,1.5,0,0,1,1349.23,4213.58Z" transform="translate(9.07 -3917.91)" style="fill:#24292e"/><path d="M1307.38,4009.86a1.5,1.5,0,0,1-1.06-2.56l20.22-20.22a1.5,1.5,0,0,1,2.12,2.12l-20.22,20.22A1.5,1.5,0,0,1,1307.38,4009.86Z" transform="translate(9.07 -3917.91)" style="fill:#24292e"/><path d="M1283.8,4437.75a1.5,1.5,0,0,1-1.06-2.56L1303,4415a1.5,1.5,0,0,1,2.12,2.12l-20.22,20.22A1.5,1.5,0,0,1,1283.8,4437.75Z" transform="translate(9.07 -3917.91)" style="fill:#24292e"/><path d="M112.8,4519.26a1.5,1.5,0,0,1-1.06-2.56L132,4496.48a1.5,1.5,0,1,1,2.12,2.12l-20.22,20.22A1.5,1.5,0,0,1,112.8,4519.26Z" transform="translate(9.07 -3917.91)" style="fill:#24292e"/><path d="M114.38,4315.62h-62a1.5,1.5,0,0,1,0-3h62a17,17,0,0,0,17.19-17.11l0.22-44.1a20.28,20.28,0,0,1,20.27-20.22h16.87a18.85,18.85,0,0,0,18.85-18.8,1.5,1.5,0,0,1,3,0,21.85,21.85,0,0,1-21.85,21.8H152.07a17.28,17.28,0,0,0-17.28,17.24l-0.22,44.09A20.17,20.17,0,0,1,114.38,4315.62Z" transform="translate(9.07 -3917.91)" style="fill:#24292e"/><path d="M93.07,4417.38a1.5,1.5,0,1,1,0-3,18.67,18.67,0,0,0,18.58-18.72,1.5,1.5,0,0,1,3,0A21.68,21.68,0,0,1,93.07,4417.38Z" transform="translate(9.07 -3917.91)" style="fill:#24292e"/><path d="M306,3954a6.51,6.51,0,1,1,6.51-6.51A6.52,6.52,0,0,1,306,3954Zm0-10a3.51,3.51,0,1,0,3.51,3.51A3.51,3.51,0,0,0,306,3944Z" transform="translate(9.07 -3917.91)" style="fill:#24292e"/><path d="M1373.68,4055.78a6.51,6.51,0,1,1,6.51-6.51A6.52,6.52,0,0,1,1373.68,4055.78Zm0-10a3.51,3.51,0,1,0,3.51,3.51A3.51,3.51,0,0,0,1373.68,4045.76Z" transform="translate(9.07 -3917.91)" style="fill:#24292e"/><path d="M1362.21,4340.93a6.51,6.51,0,1,1,6.51-6.51A6.51,6.51,0,0,1,1362.21,4340.93Zm0-10a3.51,3.51,0,1,0,3.51,3.51A3.51,3.51,0,0,0,1362.21,4330.92Z" transform="translate(9.07 -3917.91)" style="fill:#24292e"/><path d="M1228.77,4544.65a6.51,6.51,0,1,1,6.51-6.51A6.52,6.52,0,0,1,1228.77,4544.65Zm0-10a3.51,3.51,0,1,0,3.51,3.51A3.51,3.51,0,0,0,1228.77,4534.64Z" transform="translate(9.07 -3917.91)" style="fill:#24292e"/><path d="M1365,4111.93a1.5,1.5,0,0,1,0-3,18.74,18.74,0,0,0,18.72-18.72,1.5,1.5,0,0,1,3,0A21.75,21.75,0,0,1,1365,4111.93Z" transform="translate(9.07 -3917.91)" style="fill:#24292e"/><path d="M1120,3989.59a1.5,1.5,0,0,1-1.5-1.5,21.77,21.77,0,0,1,21.75-21.75,1.5,1.5,0,1,1,0,3,18.77,18.77,0,0,0-18.75,18.75A1.5,1.5,0,0,1,1120,3989.59Z" transform="translate(9.07 -3917.91)" style="fill:#24292e"/><path d="M1321.79,3967.77h0a1.5,1.5,0,0,1-1.5-1.5,20.28,20.28,0,0,1,20.27-20.23h94a1.5,1.5,0,0,1,0,3h-94a17.28,17.28,0,0,0-17.32,17.24A1.5,1.5,0,0,1,1321.79,3967.77Z" transform="translate(9.07 -3917.91)" style="fill:#24292e"/><path d="M1433.47,4376.75H1413a20.3,20.3,0,0,1-20.28-20.28v-82.25a1.5,1.5,0,0,1,3,0v82.25a17.3,17.3,0,0,0,17.28,17.28h20.48A1.5,1.5,0,0,1,1433.47,4376.75Z" transform="translate(9.07 -3917.91)" style="fill:#24292e"/><path d="M1301.14,4090.81a1.5,1.5,0,0,1-1.5-1.5,17.27,17.27,0,0,0-17.27-17.23h0l-61.82.08h0a20.3,20.3,0,0,1-20.27-20.23L1200,3923.41a1.5,1.5,0,0,1,1.5-1.5h0a1.5,1.5,0,0,1,1.5,1.5l0.19,128.52a17.29,17.29,0,0,0,17.27,17.23h0l61.82-.08h0a20.28,20.28,0,0,1,20.27,20.23,1.5,1.5,0,0,1-1.5,1.5h0Z" transform="translate(9.07 -3917.91)" style="fill:#24292e"/><path d="M1394.21,4282.79a1.5,1.5,0,0,1-1.5-1.5v-91.11a17.29,17.29,0,0,0-17.28-17.27h-55.64a20.3,20.3,0,0,1-20.28-20.28l0-7.26,0.18-97.67a20.28,20.28,0,0,1,20.27-20.23h0l120.54,0.08a1.5,1.5,0,0,1,0,3h0l-120.54-.08h0a17.28,17.28,0,0,0-17.28,17.24l-0.2,104.93a17.29,17.29,0,0,0,17.28,17.27h55.64a20.3,20.3,0,0,1,20.28,20.27v91.11A1.5,1.5,0,0,1,1394.21,4282.79Z" transform="translate(9.07 -3917.91)" style="fill:#24292e"/><path d="M180.4,4132.15a1.5,1.5,0,0,1-1.5-1.5,18.74,18.74,0,0,0-18.72-18.72,1.5,1.5,0,0,1,0-3,21.75,21.75,0,0,1,21.72,21.72A1.5,1.5,0,0,1,180.4,4132.15Z" transform="translate(9.07 -3917.91)" style="fill:#24292e"/></svg>