<?xml version="1.0" encoding="UTF-8" standalone="no"?>
<svg id="svg2" xmlns:rdf="http://www.w3.org/1999/02/22-rdf-syntax-ns#" xmlns="http://www.w3.org/2000/svg" height="100%" width="100%" version="1.1" xmlns:cc="http://creativecommons.org/ns#" xmlns:xlink="http://www.w3.org/1999/xlink" viewBox="0 0 1604.1533 1109.8041" xmlns:dc="http://purl.org/dc/elements/1.1/">
 <metadata id="metadata118">
  <rdf:RDF>
   <cc:Work rdf:about="">
    <dc:format>image/svg+xml</dc:format>
    <dc:type rdf:resource="http://purl.org/dc/dcmitype/StillImage"/>
    <dc:title/>
   </cc:Work>
  </rdf:RDF>
 </metadata>
 <defs id="defs4">
  <filter id="filter7590" color-interpolation-filters="sRGB">
   <feGaussianBlur id="feGaussianBlur7" stdDeviation="11.70421"/>
  </filter>
  <filter id="filter4791" color-interpolation-filters="sRGB">
   <feGaussianBlur id="feGaussianBlur10" stdDeviation="10.20534"/>
  </filter>
  <filter id="filter5159" width="1.13" y="-0.13" x="-0.059999999" height="1.25" color-interpolation-filters="sRGB">
   <feGaussianBlur id="feGaussianBlur13" stdDeviation="14.56947"/>
  </filter>
  <filter id="filter5481" width="1.0700001" y="-0.13" x="-0.039999999" height="1.27" color-interpolation-filters="sRGB">
   <feGaussianBlur id="feGaussianBlur16" stdDeviation="13.99753"/>
  </filter>
  <filter id="filter5507" width="1.09" y="-0.11" x="-0.039999999" height="1.23" color-interpolation-filters="sRGB">
   <feGaussianBlur id="feGaussianBlur19" stdDeviation="17.76938"/>
  </filter>
  <filter id="filter4680" width="1.08" y="-0.16" x="-0.039999999" height="1.33" color-interpolation-filters="sRGB">
   <feGaussianBlur id="feGaussianBlur22" stdDeviation="10.40622"/>
  </filter>
  <filter id="filter4795" width="1.05" y="-0.1" x="-0.029999999" height="1.2" color-interpolation-filters="sRGB">
   <feGaussianBlur id="feGaussianBlur25" stdDeviation="10.04744"/>
  </filter>
  <linearGradient id="linearGradient3393">
   <stop id="stop28" stop-color="#fff" offset="0"/>
   <stop id="stop30" stop-color="#fff" stop-opacity="0" offset="1"/>
  </linearGradient>
  <linearGradient id="linearGradient5301">
   <stop id="stop33" stop-color="#618ce6" offset="0"/>
   <stop id="stop35" stop-color="#4270cc" offset="0.12308"/>
   <stop id="stop37" stop-color="#335eb5" offset="0.23778"/>
   <stop id="stop39" stop-color="#153b88" offset="0.58813"/>
   <stop id="stop41" stop-color="#04215c" offset="1"/>
  </linearGradient>
  <linearGradient id="linearGradient5245" xlink:href="#linearGradient3393" gradientUnits="userSpaceOnUse" y1="900.43" x2="0" y2="880.42"/>
  <mask id="mask5241">
   <path id="path45" fill="url(#linearGradient5245)" d="m1779.4,880.47h1603.4a1.2778,1.278,0,0,1,1.2778,1.278v320.97a1.2778,1.278,0,0,1,-1.2778,1.278h-1603.4a1.2778,1.278,0,0,1,-1.2778,-1.278v-320.95a1.2778,1.278,0,0,1,1.2778,-1.278"/>
  </mask>
  <clipPath id="clipPath3137" clipPathUnits="userSpaceOnUse">
   <rect id="rect3139" height="1109.8" width="1604.2" y="244.09" x="3.8859" fill="#CCC"/>
  </clipPath>
  <radialGradient id="radialGradient3141" gradientUnits="userSpaceOnUse" cy="722.58" cx="1980.4" gradientTransform="matrix(2.44021,4.7661074e-7,0,0.93665,-4654.8578,168.19947)" r="803">
   <stop id="stop48" stop-color="#417fd9" offset="0"/>
   <stop id="stop50" stop-color="#215aa5" offset="0.3186"/>
   <stop id="stop52" stop-color="#002a7d" offset="1"/>
  </radialGradient>
  <radialGradient id="radialGradient3143" gradientUnits="userSpaceOnUse" cy="1154.4" cx="1965" gradientTransform="matrix(2.25388,4.2926804e-7,0,0.34816,-4303.8492,-1263.9259)" r="803">
   <stop id="stop64" stop-color="#bab5cc" offset="0"/>
   <stop id="stop66" stop-color="#9fa2b3" offset="0.15245"/>
   <stop id="stop68" stop-color="#5b7bad" stop-opacity="0" offset="1"/>
  </radialGradient>
  <radialGradient id="radialGradient3145" gradientUnits="userSpaceOnUse" cy="1056.5" cx="1954.2" gradientTransform="matrix(3.54967,0,1.044317e-7,0.47748,-5055.4693,376.0211)" r="803">
   <stop id="stop55" stop-color="#90b2f2" offset="0"/>
   <stop id="stop57" stop-color="#5a83d4" offset="0.16017"/>
   <stop id="stop59" stop-color="#1b589d" offset="0.46803"/>
   <stop id="stop61" stop-color="#133d6d" offset="1"/>
  </radialGradient>
  <radialGradient id="radialGradient3147" xlink:href="#linearGradient3393" gradientUnits="userSpaceOnUse" cy="849.73" cx="354.73" gradientTransform="matrix(1.88607,-0.11124,0.02424039,0.41098,-237.70606,592.95123)" r="403.86"/>
  <radialGradient id="radialGradient3149" xlink:href="#linearGradient3393" gradientUnits="userSpaceOnUse" cy="747.16" cx="503.01" gradientTransform="matrix(1.38597,-0.15994,0.04953691,0.42927,-277.02692,696.70747)" r="377.24"/>
  <radialGradient id="radialGradient3151" fx="1442.3" fy="842.62" xlink:href="#linearGradient3393" gradientUnits="userSpaceOnUse" cy="734.75" cx="1406.1" gradientTransform="matrix(0.16997,0.63432,-1.40752,0.37714,3996.1972,-423.0061)" r="230"/>
  <radialGradient id="radialGradient3153" xlink:href="#linearGradient5301" gradientUnits="userSpaceOnUse" cy="358.26" cx="2053.7" gradientTransform="matrix(2.48757,0,0,0.28384,-4848.8912,781.56713)" r="807"/>
  <radialGradient id="radialGradient3155" xlink:href="#linearGradient5301" gradientUnits="userSpaceOnUse" cy="-116.02" cx="2520" gradientTransform="matrix(-2.4051,0,0,0.36119,6250.8035,869.33967)" r="807"/>
  <radialGradient id="radialGradient3157" xlink:href="#linearGradient3393" gradientUnits="userSpaceOnUse" cy="515.88" cx="2441.2" gradientTransform="matrix(1.80212,-3.7931425e-6,-1.2729438e-6,0.96714,-1591.902,160.29857)" r="221.84"/>
  <radialGradient id="radialGradient3159" gradientUnits="userSpaceOnUse" cy="2188" cx="79.6" gradientTransform="matrix(0,-0.36686,1.58653,0,-3134.751,1386.0627)" r="807">
   <stop id="stop71" stop-color="#174c99" offset="0"/>
   <stop id="stop73" stop-color="#174c99" stop-opacity="0" offset="1"/>
  </radialGradient>
  <radialGradient id="radialGradient3161" fx="136.82" fy="613.54" xlink:href="#linearGradient3393" gradientUnits="userSpaceOnUse" cy="625.17" cx="198.53" gradientTransform="matrix(3.24251,0.37929,-0.04163305,0.31862,-111.27016,698.78251)" r="410.21"/>
  <radialGradient id="radialGradient3163" xlink:href="#linearGradient3393" gradientUnits="userSpaceOnUse" cy="703.75" cx="225.29" gradientTransform="matrix(2.35796,0.08084735,-0.02250093,0.32137,-291.32075,697.28538)" r="374.01"/>
  <radialGradient id="radialGradient3165" xlink:href="#linearGradient3393" gradientUnits="userSpaceOnUse" cy="848.37" cx="179.75" gradientTransform="matrix(2.10117,2.8705477e-5,0,0.41508,-197.83559,610.32492)" r="284.62"/>
 </defs>
 <g id="g84" clip-path="url(#clipPath3137)" transform="translate(-3.8859384,-244.09328)">
  <path id="path86" fill="url(#radialGradient3141)" d="M3.1778,242h1603.4a1.2778,1.278,0,0,1,1.2778,1.278v1095.4a1.2778,1.278,0,0,1,-1.2778,1.278h-1603.4a1.2778,1.278,0,0,1,-1.2778,-1.3v-1095.4a1.2778,1.278,0,0,1,1.2778,-1.278"/>
  <path id="path88" fill="url(#radialGradient3143)" d="m1.9-890h1606v439.53h-1606z" transform="scale(1,-1)"/>
  <path id="path90" d="m1779.4,880.47h1603.4a1.2778,1.1966,0,0,1,1.2778,1.1966v321.13a1.2778,1.1966,0,0,1,-1.2,1.1967h-1603.5a1.2778,1.1966,0,0,1,-1.2778,-1.1967v-321.13a1.2778,1.1966,0,0,1,1.2778,-1.1966" mask="url(#mask5241)" transform="matrix(1,0,0,1.068,-1776.2522,-83.87169)" fill="url(#radialGradient3145)"/>
  <g id="g92" opacity="0.55026">
   <path id="path94" opacity="0.62433998" d="m65.05,1010.5c4.75-7.35,6.81-41.9,14.15-56.57,6.7-13.4,36.19,12.1,39.59,14.14,18.76,11.25,29.91,15.35,45.26,0,11.92-11.93,28.63-8.49,45.25-8.49,4.26,0-1.4-38.54,14.15-42.42,19.22-4.81,35.69,5.65,53.74,5.65,25.79,0,20.07,27.19,31.11-16.97,4.71-18.84,12.35-18.64,28.28-22.62,10.79-2.7,36.54,28.05,45.26,36.77,14.76,14.75,21.3,19.79,42.42,19.79,31.34,0,30.21-4.69,56.57,8.49,26.68,13.34,19.62,37.61,50.91,14.14,19.33-14.49,30.65-22.94,45.26-42.42,10.04-13.39,7.81-30.21,16.97-42.43,10.6-14.13,35.79-7.53,50.91-11.31,21.12-5.28,25.46-22.54,25.46-42.43,0-19.26,37.54-14.14,50.91-14.14,12.61,0,36.99,25.68,42.43,31.11,11.46,11.47,18.24,22.44,31.11,39.6,12.39,16.52,17.21,27.66,28.28,42.42,5.05,6.74,35.41,12.33,45.26,25.46,11.99,15.99-2.83,33.94-14.15,45.25-18.68,18.69-64.96-5.74-87.68,16.98-17.75,17.75-37.69,21.02-53.74,42.42-12.93,17.25-23.98,31.04-36.77,48.09-15.53,20.71-34.99,19.79-59.39,19.79-44.37,0-103.21-28.63-147.08-39.59-27.73-6.94-61.52-2.83-90.51-2.83h-99c-32.96,0-73.88,4.86-104.65-2.83-24-6-35.97-11.19-50.91-31.11-9.33-12.45-29.18-19.32-42.43-22.63-13.06-3.27-12.36,7.1-16.97-11.31z" transform="matrix(0.47855,0,0,0.47855,910.46885,383.42197)" filter="url(#filter5507)" fill="url(#radialGradient3147)"/>
   <path id="path96" opacity="0.51323003" d="m98.99,1089.7c21.89-41.77,73.71-25.75,104.43-61.83,20.46-24.02-0.82-53.38,51.14-56.96,39.01-2.69,55.53-23.33,84.95,18.26,38.67,54.68,88.9-15.67,123.93-45.2,47.23-39.83,40.28,80.18,112.02,63.71,38.06-8.74,4.07-63.52,44.55-22.89,34.6,34.73,130.27-1.46,134.46,39.87,6.43,63.38,100.21,61.72,86.36,96.73-21.27,53.75-658.78,0.93-726.54-3.4-31.55-2.02-27.99-4.07-15.3-28.29z" transform="matrix(-0.47794,0.01907,0.02409,0.37833,1327.6553,468.45806)" filter="url(#filter5481)" fill="url(#radialGradient3149)"/>
  </g>
  <path id="path98" opacity="0.55026" d="m3000,880c8-18,26-38,48-32s26,0,32-8,8-26,16-28,42,2,42,2-4-20,2-32,30-16,48-16,38-28,48-34,26-4,40-4,36,8,44-2,24-28,32-34,38-20,42-12,6,32,14,42,22,50,22,50l-2,136-456-6,28-22z" transform="matrix(1.01736,0,0,1.01736,-1843.555,-15.76337)" filter="url(#filter5159)" fill="url(#radialGradient3151)"/>
  <path id="path100" fill="url(#radialGradient3153)" d="m-2.1,859.25c16.75-9.75,56,38,67,40s52,7,58,9,34-13,40-13,18-4,22-6,7-10.5,17-11,12,8,23,9,27.09,2.45,40,7c8.15,2.88,6.96,5.78,11,8.41,6.43,4.18,4-11.41,13-7.41s2.75,8,16,3,28-22,37-23,30,11,38,12,40-14,49-14,25.75,4.75,46,4,25-10,35-7,15.25,6.5,25,9,18.5-2,19.5,4,14.25,8.75,26.5,10,10-10,17-8,37,20,46,19,5-9,14-7,11,9,20,10,24-5,35-5,27-8,32-12,46-15,54-16,45-5,60-10,74.79-18.24,87.52-15.41c12.41,2.76,38.48,40.41,58.48,41.41s69,4,77-2,69-21,77-14,52-8,57-9c1.89-0.37,37.34,1.93,42.16,14.05,6.28,15.81,46.73,28.81,78.22,31.45,25.44,2.13,57.9,19.39,117.6,1.36,8.87-2.67,51.7-17.7,80-12.6,17.15,3.09,65.29-1.51,78.02,5.02v301.72h-1614v-347z"/>
  <path id="path102" fill="url(#radialGradient3155)" d="m1611.9,934.72c-16.75-7.46-56,29.08-67,30.61s-52,5.35-58,6.88c-6,1.54-34-9.94-40-9.94s-18-3.06-22-4.59c-4-1.54-7-8.04-17-8.42-10-0.39-12,6.12-23,6.88-11,0.77-27.09,1.87-40,5.36-8.15,2.2-6.95,4.42-11,6.43-6.43,3.2-4-8.72-13-5.66s-2.75,6.12-16,2.29c-13.25-3.82-28-16.83-37-17.6-9-0.76-30,8.42-38,9.18-8,0.77-40-10.71-49-10.71s-25.75,3.64-46,3.06c-20.25-0.57-25-7.65-35-5.35-10,2.29-15.25,4.97-25,6.88-9.75,1.92-18.5-1.53-19.5,3.06-1,4.6-14.25,6.7-26.5,7.66-12.25,0.95-10-7.66-17-6.13s-37,15.31-46,14.54c-9-0.76-5-6.88-14-5.35s-11,6.88-20,7.65c-9,0.76-24-3.83-35-3.83s-27-6.12-32-9.18-46-11.48-54-12.24c-8-0.77-45-3.83-60-7.66-15-3.82-74.79-13.95-87.51-11.79-12.42,2.11-38.49,30.93-58.49,31.69-20,0.77-69,3.06-77-1.53s-69-16.07-77-10.71c-8,5.35-52-6.13-57-6.89-1.89-0.29-37.34,1.47-42.16,10.75-6.28,12.1-46.73,22.04-78.22,24.06-25.44,1.63-57.9,14.84-117.6,1.05-8.87-2.05-51.7-13.55-80-9.65-17.15,2.37-65.29-1.15-78.02,3.85v387.49h1614v-422.18z"/>
  <path id="path104" opacity="0.55026" d="m2706,842c4-14,21.51-17.27,27.51-35.27,16.54-35.34,58.06-28.44,86.73-20.63,14,4,39.76,7.9,51.76-2.1s62,8,64-26,4-68,26-68,38-16,46-38,26-30,44-16,38,44,44,60-6,170-6,170l-436-2s32-18,52-22z" transform="matrix(0.71927,0,0,0.71927,-633.26983,268.83453)" filter="url(#filter7590)" fill="url(#radialGradient3157)"/>
  <path id="path106" fill="url(#radialGradient3159)" d="M1611.9,926.59c-519.8,62.11-1070.6-45.23-1614,23.96v406.31h1614v-430.31z"/>
  <g id="g108" opacity="0.67841001">
   <path id="path110" opacity="0.69312002" d="m60.63,938c0-114.68,124.2-14.83,151.06,55.99,28.61-57.33,98.96-69.76,126.51-19.19,42.25-0.56,52.78,86.04,82.38,18.47,45.46-63.91,89.69,33.18,99.58,70.09,29.36,2.66,53.09-30.69,72.38,7.74,32.67-32.78,57.78,20.24,94.8,0.97,29.64,37.88,89.69,14.58,92.45,63.58,44.83,8.11,95.25,1.03,95.25,47.72h-818.41c-138.46-43.5-139.89-152.6,4-245.4z" transform="matrix(1.22086,0,0,0.85775,-134.12013,129.39174)" filter="url(#filter4791)" fill="url(#radialGradient3161)"/>
   <path id="path112" d="m47.2,969.57c22.03-16.83,40.54,30.41,46.5-13.95,34.36,9.07,62.72,82.16,99.26,23.58,30.73-30.42,75.75-20.3,97.45,0.3,41.19-0.21,79.79,46.87,114.92,18.74,38.98,39.03,100.73,65.29,143.33,59.4,27.71,37.03,83.5-46.18,99.97,13.65,61.29-19.97,53.06,79.16,91.94,78.98-55.95,11.74-93.79-44.94-147.33-53.28-58.5-21.1-123.89-19.25-180.66,6.35-80.69,14.16-162.23-10.03-243.57-4.15-356.83,63.9-208.52-177.48-121.81-129.43z" transform="matrix(-1.20783,0,0,1.17061,445.39077,-159.30164)" filter="url(#filter4795)" fill="url(#radialGradient3163)"/>
   <path id="path114" d="m-57.94,1078.3c26.95-53.54,96.36-65.39,150.33-55.78,40.74-5.58,79.89-37.52,126.09-19.89,39.47,11.41,72.89,35.27,114.5,15.87,59.54-5.42,122.24,15.03,163.74,58.83,3.75,37.83-45.25,38.15-71.45,34.16-49.11-5.18-97.93-17.92-147.56-13.62-101.54-11.41-200.29,33.66-301.61,21.85-14.65-2.38-29.03-6.71-42.36-13.29" transform="matrix(-0.73145,0,0,0.76202,566.21085,266.31168)" filter="url(#filter4680)" fill="url(#radialGradient3165)"/>
  </g>
 </g>
</svg>
